<svg xmlns="http://www.w3.org/2000/svg" viewBox="0 0 733.89 245.78"><defs><style>.cls-1{fill:#d4d3de;}.cls-2{fill:#696969;}</style></defs><title>naran_Asset 9</title><g id="Layer_2" data-name="Layer 2"><g id="Layer_1-2" data-name="Layer 1"><path class="cls-1" d="M586.42,0V245.78h49.16V147.47h98.31V0Zm98.31,98.31H635.58V49.15h49.15Z"/><path class="cls-1" d="M171.67,0V147.47H319.14V0ZM270,98.31H220.83V49.15H270Z"/><polygon class="cls-1" points="343.34 0 343.34 147.47 392.5 147.47 392.5 49.16 428.1 49.16 428.1 147.47 477.25 147.47 477.25 49.16 513.06 49.16 513.06 147.47 562.22 147.47 562.22 0 343.34 0"/><path class="cls-1" d="M0,0V147.47H98.31v98.31h49.16V0ZM98.31,98.31H49.15V49.15H98.31Z"/><rect class="cls-2" x="98.31" y="239.63" width="6.14" height="6.14"/><rect class="cls-2" x="141.32" y="239.63" width="6.14" height="6.14"/><rect class="cls-2" x="141.32" width="6.14" height="6.14"/><rect class="cls-2" width="6.14" height="6.14"/><rect class="cls-2" y="141.32" width="6.14" height="6.14"/><rect class="cls-2" x="312.99" width="6.14" height="6.14"/><rect class="cls-2" x="312.99" y="141.32" width="6.14" height="6.14"/><rect class="cls-2" x="171.67" width="6.14" height="6.14"/><rect class="cls-2" x="171.67" y="141.32" width="6.14" height="6.14"/><rect class="cls-2" x="556.07" width="6.14" height="6.14"/><rect class="cls-2" x="556.07" y="141.32" width="6.14" height="6.14"/><rect class="cls-2" x="586.42" y="239.63" width="6.14" height="6.14"/><rect class="cls-2" x="629.44" y="239.63" width="6.14" height="6.14"/><rect class="cls-2" x="727.75" width="6.14" height="6.14"/><rect class="cls-2" x="727.75" y="141.32" width="6.14" height="6.14"/><rect class="cls-2" x="586.42" width="6.14" height="6.14"/><rect class="cls-2" x="386.36" y="141.32" width="6.14" height="6.14"/><rect class="cls-2" x="343.34" width="6.14" height="6.14"/><rect class="cls-2" x="343.34" y="141.32" width="6.14" height="6.14"/><rect class="cls-2" x="471.11" y="141.32" width="6.14" height="6.14"/><rect class="cls-2" x="428.1" y="141.32" width="6.14" height="6.14"/><rect class="cls-2" x="513.06" y="141.32" width="6.14" height="6.14"/></g></g></svg>